<?xml version="1.0" standalone="no"?><!DOCTYPE svg PUBLIC "-//W3C//DTD SVG 1.1//EN" "http://www.w3.org/Graphics/SVG/1.1/DTD/svg11.dtd"><svg t="1770732353748" class="icon" viewBox="0 0 1024 1024" version="1.1" xmlns="http://www.w3.org/2000/svg" p-id="3620" width="16" height="16" xmlns:xlink="http://www.w3.org/1999/xlink"><path d="M0 944m16 0l992 0q16 0 16 16l0 48q0 16-16 16l-992 0q-16 0-16-16l0-48q0-16 16-16Z" p-id="3621" fill="#2c2c2c"></path><path d="M608 340m40 0l180 0q40 0 40 40l0 420q0 40-40 40l-180 0q-40 0-40-40l0-420q0-40 40-40Z" p-id="3622" fill="#2c2c2c"></path><path d="M156 0m40 0l180 0q40 0 40 40l0 760q0 40-40 40l-180 0q-40 0-40-40l0-760q0-40 40-40Z" p-id="3623" fill="#2c2c2c"></path></svg>