<svg viewBox="0 0 1024 1024" xmlns="http://www.w3.org/2000/svg" width="16" height="16"><path d="M341.312 341.312V97.472C341.312 43.776 385.024 0 438.848 0h487.68C980.224 0 1024 43.648 1024 97.536v487.616c0 53.824-43.648 97.536-97.536 97.536h-243.84v-243.84c0-53.824-43.648-97.536-97.536-97.536H341.312z" fill="#fff"/><path d="M121.536 317.312h487.616c53.824 0 97.536 43.712 97.536 97.536v487.616c0 53.824-43.712 97.536-97.536 97.536h-487.68A97.536 97.536 0 0 1 24 902.464V414.848c0-53.824 43.712-97.536 97.536-97.536z" fill="none" stroke="#fff" stroke-width="52" stroke-linejoin="round"/></svg>